<?xml version="1.0" encoding="utf-8"?>
<!-- Generator: Adobe Illustrator 19.0.0, SVG Export Plug-In . SVG Version: 6.00 Build 0)  -->
<svg version="1.0" id="Layer_3" xmlns="http://www.w3.org/2000/svg" xmlns:xlink="http://www.w3.org/1999/xlink" x="0px" y="0px"
	 viewBox="0 0 131.3 59.3" style="enable-background:new 0 0 131.3 59.3;" xml:space="preserve">
<style type="text/css">
	.st0{fill:url(#SVGID_1_);}
	.st1{fill:url(#SVGID_2_);}
	.st2{fill:url(#SVGID_3_);}
	.st3{fill:url(#SVGID_4_);}
	.st4{fill:url(#SVGID_5_);}
	.st5{fill:url(#SVGID_6_);}
	.st6{fill:url(#SVGID_7_);}
	.st7{fill:url(#SVGID_8_);}
	.st8{fill:url(#SVGID_9_);}
	.st9{fill:url(#SVGID_10_);}
</style>
<linearGradient id="SVGID_1_" gradientUnits="userSpaceOnUse" x1="71.1774" y1="-1.273293e-011" x2="71.1774" y2="39.7949">
	<stop  offset="0" style="stop-color:#FFD900"/>
	<stop  offset="1" style="stop-color:#FF931E"/>
</linearGradient>
<path class="st0" d="M90.2,19.3c0-2.1-0.3-4.2-1-6.1C86.7,5.5,79.4,0,70.9,0c-8.5,0-15.8,5.5-18.4,13.2c-0.3,1-0.6,2-0.7,3
	c-0.2,1-0.3,2.1-0.3,3.1c0.1,1.6,0,0.7,0.1,1.6c0,0.5-0.1,0.9,0.2,1.5c-1.4,0.1-1.6,0.1,1.7,0.2c7.7,0.1,0.9,0.1,3,0.2
	c11.5,0.1,0.2,0.3-3.2,0.4c-2.5,0.1,3.7,0.3-0.1,0.4c-1.2,0.1-4.2,0.3-1.1,0.4c10.5,0.1,8.3,0.2,3.6,0.4c2.2,0.1-3.7,0.2-4,0.4
	c-3.3,0.2-3.3,0.5,0.8,0.7c2.8,0.5-5,0.5,0.6,1c8.5,0.1-2.8,0.7-1.3,0.8c-2.7,0.1,4.2,0.1-0.5,0.2c2.4,0.1-4,0.1,4,0.2
	c-3.1,0.1-0.9,0.1,1.3,0.2c1.1,0,2.4,0.1,3.6,0.1c0.8,0,1.4,0,0.9,0c-1,0-2.6,0-3.1,0c-0.6,0.1-4.5,0.1-1,0.2
	c-3.5,0-10.1,0.1-5.6,0.1c-4.7,0,0.7,0.1,2.3,0.1c-0.4,0,2.3,0.1,1.7,0.1c-2,0,1.7,0.1,2.8,0.1c0.2,0,0.5,0,1.1,0
	c-0.6,0-0.8,0-0.4,0c0.4,0,1.5,0,3.6,0c11.8,0-1.9,0,2.3,0c-4.2,0-4.3,0-5.6,0c-0.8,0-0.6,0-1.4,0c-1,0-2.2,0-3.3,0
	c-2.1,0-3.1,0,1.4,0c-0.3,0,0.5,0,1.9,0c0.4,0,0.5,0,2.6,0c-0.1,0,5.1,0,3,0c-3.3,0,1.1,0-0.7,0c-1.3,0,1.4,0.3,3.9,0.3
	c1.8,0-3.9,0.3-0.2,0.3c-3.9,0-6.2,0,1.5,0c4.2,0-3,0,2.8,0c-4.1,0-1.4,0,1.4,0c-3.6,0-5.2,0,2.3,0c-0.3,0,1.6,0,0,0
	c3.1,0-0.7-0.3-4.3-0.3c1.8,0-6.2-0.1-3.1-0.1c-0.8,0,6.5,0.2,2.6,0.2c-6,0-9.3,0.2-6.3,0.2c2.4,0-3,0,2.6,0c-5.6,0,1-0.2-0.7-0.2
	c4.7,0-5.1-0.1,0.3-0.1c6.2,0-5.2,0.2,3.5,0.2c4.1,0,2.9,0.2,3.5,0.2c-4,0-0.5,0,0.7,0c-2.7,0,3.1-0.2,1.1-0.2
	c-8.8,0-1.4-0.1-1.3-0.1c3.3,0-2.3-0.1-2.4-0.1c-8.7,0,8.9,0-0.7,0c4.5,0-9.7,0-3.4,0c0.1,0-6.4,0-0.5,0c0.1,0-6,0-2.6,0
	c-3.5,0-3.4,0.2,3.8,0.2c4.5,0,2.4,0.2,0.4,0.2c-2,0,1.5,0,4.2,0c9.6,0,0.5-0.2,4-0.2c1.6,0,6.1-0.1-0.9-0.1c-1.9,0,2.8-0.1,0.5-0.1
	c-5.7,0,4.4,0-4.5,0c6.3,0-6.9,0.2,2.4,0.2c-7.2,0-11.6,0.2-5.7,0.2c1.7,0-0.5,0-1.6,0c6.9,0-6.2-0.2-2.1-0.2c9.3,0-4.1-0.1-4.2-0.1
	c-0.2,0,5,0,1.3,0c-1.3,0-3,0,0,0c2,0-3.5,0-1.9,0c-1.8,0-3.5,0-1.2,0c-0.2,0-2,0-2.8,0c-4.3,0-3.5,0-1.6,0
	c-7.1,0.1-6.9,0.1-4.7,0.2c-2.3,0.1-2.3,0.1,2.8,0.2c1,0.1,6.5,0.2,1.8,0.3c0.2,0,0.3,0.1,0.9,0.1c0.6,0,1.6,0.1,3.4,0.1
	c2.1,0,0.7,0.1,2.6,0.1c-3.2,0-3.4,0.1-3,0.1c-0.3,0.1-0.8,0.2-0.5,0.3c-7.6,0.2-1.3,0.4-1.8,0.6c1.4,0,1.1,0,3.3,0.1
	c-2,0-0.8,0-0.9,0.1c3.3,0,0.4,0,3.8,0.1c-5,0,1,0-0.3,0.1c4,0-3.6,0-4,0.1c-0.4,0,0,0,0.9,0.1c-2,0-3.2,0-3.7,0.1
	c-0.5,0-0.3,0,0.6,0.1c0.4,0,2.5,0,5,0.1c0.3,0-2.3,0-1.9,0.1c-0.6,0,5.3,0.1,2.2,0.1c0.2,0-3.1,0-0.2,0.1c0.4,0-2.7,0-0.2,0.1
	c-3.8,0-4,0.1-3.2,0.1c-1.6,0-3,0.1-4,0.1c-1,0-1.8,0.1-2.1,0.1c-0.7,0.1,0.2,0.2,3.1,0.3c1.9,0,2,0.1,3.7,0.1c0.1,0-0.5,0,2,0.1
	c-1.5,0-2.5,0-3.5,0.1c-0.5,0.1-1.1,0.2,1.3,0.3c-1,0-1.4,0-1.1,0c0.3,0,0.5,0,3.7,0c3.3,0-3.2,0,2.1,0c6.7,0,3.2,0,3.1,0
	c1.2,0-3.7,0-1.1,0c0.2,0,2.5,0,2.4,0c6.7,0-2.9,0,2.3,0c-4.3,0-8.3,0-1.1,0c6.2,0-0.7,0,4,0c0.7,0-2.1,0-3.6,0c-2,0-6.1,0-2,0
	c1.9,0,1.6,0,3.4,0c-0.2,0-10.1,0-6.1,0c-1.7,0,14.6,0,2.8,0c-3.6,0,3.3,0,2.6,0c2,0-5.1,0-4.2,0c-7.8,0-1.9,0-1.4,0
	c4.3,0-6.8,0,1.7,0c-1.4,0-7.9,0-2.2,0c-6,0-5.9,0-2.3,0c0.2,0-3.5,0,2.3,0c3.6,0,5.2,0,4.8,0c3.7,0-1.3,0-3.7,0c-2.7,0-2,0-2.2,0
	c5.8,0,2.1,0,3.8,0c1.9,0,0.5,0-2,0c7.3,0,12.6,0,2.8,0.1c-1.4,0,2.3,0-6.4,0.1c-3.3,0-3.3,0-0.6,0c7.4,0,9.4,0,4.2,0
	c-0.7,0,0.7,0-2.3,0c-4.8,0,2.2,0-2.7,0c-3.1,0-3.2,0-2.7,0c-0.4,0-0.5,0,1.2,0c-1.9,0-0.4,0,3.4,0c12.2,0,1.5,0,3.6,0
	c-0.5,0,4.7,0-1.7,0c-2.5,0-1.5,0-0.6,0c6.5,0,7.9,0,4.9,0c3.1,0,2.2,0,0.8,0c-1.4,0,5.9,0,2.6,0c11.9,0,6.3,0,5.8,0
	c-5,0-4.7,0-1.3,0c1.5,0,0.8,0,4.8,0c-5.4,0-5.1,0-4.2,0c-1.3,0-0.6,0,3.5,0c7.8,0,4.6,0-3.7,0c5.8,0-12.2,0-1.9,0c-1.5,0-9.5,0-5,0
	c3.8,0-7,0-1.2,0c-4.1,0-5.5,0-2.4,0c7.8,0,2.4,0,3.2,0c-7.8,0-7.1,0,1.6,0c4.5,0-2.9,0-1.8,0c3.9,0-3.4,0-4.8,0c7.6,0-6.4,0,1.6,0
	c-1.2,0,6,0,2.1,0c-5.9,0,7.5,0-3.2,0c-6.9,0-0.4,0-1,0c0.4,0,6.2,0-1.3,0c-4.5,0-4.7,0-4,0c-0.6,0-0.5,0,0.6,0c-1.2,0-1.7,0-1.3,0
	c-0.3,0,0.3,0,4.5,0c-4.4,0-4.3,0-3.1,0c-1.1,0-1.4,0,1.5,0c10,0,7.9,0,2.9,0c-0.1,0-1.2,0,1.7,0c-4.1,0-1.8,0-1.1,0
	c-3.9,0,1.9,0,2.7,0c0.3,0,4.8,0,1.1,0c10,0,2.4,0-4,0c2.8,0-6.1,0-3.3,0c-3.2,0-2.8,0-2.9,0c-0.1,0-0.3,0,2.5,0c2.5,0-2.3,0-0.1,0
	c-3.4,0-3.3,0-1.1,0c-2.2,0,4.2,0,0.6,0c-2,0-2.2,0-1.5,0c-0.7,0-0.4,0,6.4,0c-1.5,0-6.8,0-4.5,0c-2.3,0,5.5,0,1,0
	c3.5,0-4.2,0,0.7,0c-4,0,4,0,0.6,0c1,0,0.4,0,2.9,0c4.4,0-1.6,0,2,0c-9.7,0-3.8,0-4.2,0c-5.2,0-2.7,0,0.4,0c-0.1,0,1.5,0,0.6,0
	c-0.6,0-6.5,0,0.5,0c-1,0,1.3,0-0.7,0c-6.8,0-6.2,0-3.9,0c4.3,0-3.6,0-0.9,0.1c-2.4,0,5.7,0,0,0c-1.4,0,1.4,0,6.4,0
	c3.2,0-0.2,0-2.7,0c7.3,0,11.8,0,3.3,0c-8.6,0,0.3,0-0.2,0c-0.6,0-0.5,0,3,0c-2,0,5.6,0,4.6,0c-0.7,0-0.7,0-2.7,0c5,0-0.7,0,5.3,0
	c4.4,0-8.1,0-1.9,0c6.4,0-1.7,0-2.5,0c-1.1,0,2.2,0-2.2,0c1.3,0,0.7,0,4.1,0c5.3,0-10.1,0-4.4,0c0.3,0,9.6,0,0.5,0
	c-4.3,0-3.5,0-2.5,0c-3.9,0-6,0-5.1,0c-3,0-4.6,0,1.8,0c-6.7,0-6.5,0-1.4,0.1c-2.4,0-4.8,0-3.4,0.1c-2.5,0-2.4,0-0.9,0.1
	c5.5,0-1.7,0,3.6,0c-4.3,0-4.1,0-0.4,0c3.3,0,5.3,0,2.9,0c3.1,0,6.9,0-1.5,0c-3.1,0,0.6,0-2.7,0.1c-2.2,0-4.1,0.1-1.2,0.1
	c-2.3,0-2.5,0.1-0.4,0.1c-1.9,0-2.2,0-1.1,0.1c-0.5,0-0.8,0-0.4,0c0.4,0,0.5,0,4.1,0c3.3,0-3.7,0-0.2,0.1c2.6,0,4.9,0,2.8,0.1
	c11,0,0,0-2.9,0c5.5,0,1.5,0,3,0c4.6,0,2.8,0.1-3.4,0.1c6.1,0,8.2,0.1,3.3,0.1c-6.8,0,1.2,0,1.3,0c-8.1,0-0.3,0,3.4,0
	c3.2,0,6.7,0,0.2,0c-3.8,0,6,0-0.5,0c0.5,0-6.3,0-3.5,0c-2.2,0,2.3,0,3.7,0c11.4,0,9.7,0,6.5,0c8.5,0,8.3,0-1,0c3.9,0,1.9,0,4.9,0
	c-5.3,0-1,0-2.5,0c-2.7,0,6,0-0.9,0c4.5,0,9.8,0,1.6,0c-7.1,0,3.4,0-6,0c-10.5,0-6.4,0-4.3,0c3,0,2.6,0-0.5,0c5.6,0,2.7,0-2.6,0
	c-6.9,0-1.1,0,3.5,0c10.9,0,2.8,0-0.7,0c-1.1,0-0.6,0-3.1,0c-2.8,0-4.3,0-1.3,0c-4.7,0-4.7,0-0.2,0c-3.7,0,9.1,0-1.3,0
	c-3.1,0,3.2,0,5.1,0c0.3,0,2,0,1.6,0c5,0,7.7,0-0.8,0c0.1,0-9.1,0-2.6,0c2.6,0,1.1,0,0.3,0c-7.2,0-3.4,0-3.3,0c-3.7,0,7.6,0-2.5,0
	c-1.6,0-1,0,1.1,0c7.2,0-3.1,0,1.6,0c4.1,0-4,0,0.4,0c-4.3,0,1,0,3.2,0c7.3,0,0.8,0,1.3,0c-4.2,0,2.2,0,1.5,0c-2.2,0-0.4,0-4.2,0
	c-1.6,0-0.6,0,1.9,0c4.1,0-1.9,0-3.8,0c6.1,0,4.9,0-1.1,0c-2.9,0-3.9,0-3.7,0c-1.3,0-2.2,0-2.2,0c0,0,0.9,0,3.4,0
	c-1.2,0-2.5,0.1,1,0.1c-3.6,0-4.1,0-3.3,0c0.4,0,0.6,0,1.2,0c-0.2,0,0.7,0,3.7,0c-3,0,0.7,0,0.1,0c-3.6,0-3.5,0,3.2,0
	c4.6,0,0.2,0,0.5,0c0.5,0-7.1,0-2.4,0c-1,0-4.7,0,6.5,0c-3.2,0-11.2,0-2.1,0c-3.2,0,3.4,0-2.7,0c-6.1,0,10.6,0,4.8,0
	c-0.7,0-2.6,0,4.1,0c-3.1,0,2.7,0-1.5,0c8.5,0-8,0,1.3,0c1.5,0,1.9,0-3.4,0c3.5,0,4,0,1.6,0c14,0-5.3,0-2.6,0c0.9,0-0.5,0,5.3,0
	c0,0-0.4,0,4,0c-6.6,0-0.7,0-0.9,0c-0.7,0-0.1,0-1.3,0c-4,0,7.9,0-3.1,0c4.6,0,4,0,2.2,0c1,0-0.1,0-0.5,0c0.3,0-0.1,0,3.1,0
	c3.3,0,7.3,0,2.4,0c-5.9,0-3.9,0-2.8,0c-4.3,0,13.9,0-0.4,0c-2.3,0-6.7,0-0.7,0c2.7,0,1.6,0-2.8,0c3.2,0-6.1,0-3.4,0
	c-4.4,0-3.4,0,3.5,0c-0.5,0-1.5,0,2.1,0c-14,0-2,0-4.2,0c4.8,0,5.6,0,3.9,0c-1.3,0,8,0,1.2,0c-0.5,0,3.5,0,2.5,0c-1.9,0-4.7,0-1.8,0
	c-2.2,0,5.3,0,3,0c3.4,0,7.4,0,0,0c1.3,0-5.4,0-4.6,0c-5.2,0-3.9,0-4.1,0c3,0-3.7,0,0.7,0c-4.3,0-9.4,0-0.7,0c-10.2,0-1.5,0,0.6,0
	c-1.7,0,10.7,0,3.6,0c1.4,0-3.9,0,2.5,0c-1.3,0,1.8,0-2.4,0c5.4,0-6.4,0-1.9,0c-2.4,0-5.2,0-4.2,0c-3.3,0-4.2,0,0.9,0
	c8.4,0-1.3,0,3.4,0c1.5,0-6.3,0,0.6,0c-6.5,0,5.4,0,3.1,0c6.4,0-3.7,0,2.8,0c-4.1,0-9.3,0-5.2,0c-3.3,0-4.1,0-3.5,0
	c4.9,0-3.4,0,0.5,0c-1.2,0-4.3,0-0.6,0c2.8,0,2.7,0-2.6,0c-8.9,0-4.7,0-3.6,0c-1.3,0,6,0,1.1,0c1.3,0-8.2,0-2.3,0
	c-4.4,0-0.5,0,2.4,0.1c6.7,0-0.5,0.1,2.2,0.1c0.4,0-5.1,0,7.2,0c-1.8,0,6.7,0-0.3,0c-6.2,0-3.1,0,1.5,0c9.4,0,6.5,0,3.1,0
	c-7.9,0-4.7,0-4.4,0c-11.4,0-1.4,0-3.3,0c0.3,0-5.2,0-0.2,0c-11.1,0,0.5,0-2.6,0c4,0,5,0-1.2,0c2.1,0,1.9,0-0.7,0c-1.9,0-2,0,1.7,0
	c0.1,0-6.5,0-3.6,0c0.7,0,7.4,0,0,0c-0.4,0-1.7,0-0.8,0c-4.5,0,0.2,0-4,0c7.8,0,1.8,0,1.1,0c9.6,0-4.3,0-0.7,0c-4,0-3.8,0-3.2,0
	c3.2,0,0,0,3,0c-0.4,0-3.4,0-2.7,0c-0.4,0,7.9,0,3.7,0c4,0-4.3,0,0.2,0c5.2,0,4.7,0,2.1,0c2.5,0-6.4,0,2.7,0c-1.4,0-0.2,0-3.6,0
	c10.1,0,8.1,0,4.3,0c5,0,16.3,0.2,8.3,0.2c2.8,0,1.8,0.2-1.6,0.2c6.3,0,9.3,0,4.5,0c-7.4,0,3.6-0.2-2.2-0.2c-1.4,0-6.4-0.1,1.3-0.1
	c1.9,0,1.2,0.2-3.4,0.2c4.5,0-2.8,0.2,3.1,0.2c0.4,0,2.6,0,0.3,0c-3.9,0-1-0.2-2.3-0.2c-0.1,0,3.5-0.1,3.9-0.1c-4,0-4.7,0-1.4,0
	c-3.8,0-7.1,0.2-1.2,0.2c-6.1,0-0.5,0.2-2.5,0.2c1.4,0,0.3,0,6,0c6.4,0,4.5,0-2.6,0c1.4,0,0.9,0,1,0c-2.3,0-6.5-0.2-4-0.2
	c5.1,0-0.8-0.1,0-0.1c-10.8,0-3.6,0.1-1.8,0.1c-11.8,0,7,0.1,2.7,0.1c1.8,0,4.4,0,6,0c4.7,0,9.1-0.2-1.7-0.2c-2.7,0,6.4-0.1,3-0.1
	c-0.8,0-2.8,0-1.3,0c-3.4,0-1.7,0,3.7,0c3.9,0,0,0.2-3.3,0.2c0.9,0,0.1,0.2-4.5,0.2c-12.3,0-5.6,0-5,0c1.5,0,0-0.2-3.1-0.2
	c2.6,0-1.7-0.1,0.4-0.1c1.9,0,1.3,0,1.7,0c1.1,0,2.9,0.1-3.2,0.1c10.7,0-6.6,0.1-1.3,0.1c-9.8,0,7,0,4.8,0c-0.5,0-6.4-0.1-1-0.1
	c-7,0-3.8-0.1-4-0.1c-1.3,0-4,0,1.4,0c7.4,0-2,0.1,3.8,0.1c-0.9,0,8.3,0.1-1.3,0.1c0.7,0-5.3,0-2.6,0c-0.9,0-2.4-0.1,1-0.1
	c3.7,0-1.4-0.1-2.8-0.1c-8.7,0-0.9,0-0.8,0c-0.3,0,0.7,0-1.8,0c2.3,0,0.3,0,5.2,0c-9.6,0-5.1,0-4.3,0c-7.2,0,3.3,0,1.1,0
	c-2.3,0,0.1,0,1.8,0c-3.1,0,4.5,0,0.2,0c-3.5,0-0.6,0-1.7,0c-8.6,0-7.2,0-3,0c-5.9,0-5.2,0,1.4,0c0.9,0,0.7,0,2.1,0
	c-4.3,0-0.8,0-3.8,0c-5.3,0-0.3,0-3.5,0c-1.9,0,8.8,0,1.9,0c0.3,0-4.4,0-1.3,0c4.4,0-2.7,0,5.2,0c8.2,0,0,0-3.3,0
	c-4.6,0-0.5,0,1.6,0c15.4,0-6.1,0,0,0c-6.4,0,0.1,0-3.4,0c-3.5,0-3.3,0-3.2,0c-0.6,0-0.9,0-1.1,0c-0.2,0,0,0,0.7,0
	c0.4,0,1.1,0,3.9,0c-3,0,1.5,0,2.7,0c6.3,0-0.5,0,2.2,0c-2,0-7.8,0-0.5,0c-5.7,0-5.7,0,2.6,0c-9.9,0,2.9,0-3.8,0c3.1,0-0.6,0,6.2,0
	c2.2,0-1.8,0,3.7,0c6.9,0-2.4,0-1.3,0c5.5,0-0.8,0,1.9,0c7.4,0,1.2,0,0.9,0c-8.6,0-11,0,1.8,0c-3.9,0-3.8,0-6.3,0
	c-6.9,0,1.8,0,2.4,0c-2.9,0,6.5,0,3,0c-8.3,0,6,0-1.4,0c-0.5,0-2.3,0,2.4,0c2.9,0,5.2,0-0.1,0c5.5,0,0.7,0-5.3,0c6.3,0-10.4,0-6.3,0
	c6.6,0,3.4,0,1.6,0c-0.5,0,3.5,0,2.9,0c-1.2,0-2.2,0-1.6,0c6.6,0-5.8,0,4.3,0c-1.9,0,0.1,0,4.8,0c9.3,0,5.3,0,3.3,0
	c1.5,0,1.5,0-4.9,0c4.8,0-0.2,0,0,0c-8.8,0-0.6,0-2.7,0c-7,0-9.4,0,1.5,0c-10.2,0,10.6,0-3.6,0c-12.8,0-6.7,0-1.2,0
	c3.3,0,5.3,0,3.1,0c-5.4,0-1.7,0,0.7,0c-2.2,0,3.8,0,1.9,0c3.4,0,3.3,0-6.2,0c-5.8,0,0.5,0-2.6,0c-2,0-9.2,0,1.8,0
	c0.3,0,3.1,0,1.2,0c0.3,0,4.3,0-4.4,0c6.6,0-1.9,0-1.4,0c-5.1,0-1.7-0.1,2.9-0.1c-0.3,0-3-0.1-1.3-0.1c6.6,0,1.2,0,3.9,0
	c9.1,0-1.7,0-0.7,0c-2.1,0,2.3,0,3,0c-8,0-6.1,0,3.5,0c0.8,0,1.1,0,1.1,0c-10.2,0-2.5,0-7.5,0c1.6,0-7,0-1.4,0c3.2,0-1.6,0,0.4,0
	c1.9,0,0.2,0,4.3,0c-4.8,0-2.2,0,1.1,0c4.8,0,5.2,0-0.1,0c-5.3,0-4.6,0-0.4,0c12.5,0,3.2,0,3.1,0c3.3,0-6.1,0,0.7,0
	c7.9,0-13,0,1.6,0c-0.2,0-3,0-3,0c1,0-8.6,0,2.8,0c-5,0-0.7,0,1,0c8.2,0,4.2,0-3.1,0c-4.3,0,1.7,0-2.1,0c-4.4,0-7.8,0.1-3.7,0.1
	c10.5,0,3.7,0,0.5,0c0.2,0-7.1,0-4.1,0c10.3,0-0.6,0-1.7,0c11.7,0-1.2,0,0.9,0c-1.5,0,2.5,0-0.8,0c-5.7,0-4.3-0.1,3.8-0.1
	c6.9,0-11.6-0.1-1.5-0.1c0.7,0,8.3,0,3.3,0c5.7,0,6.3,0,0.2,0c-3.6,0,0.9,0,1.9,0c4.3,0-0.2,0,0.9,0c7.2,0-4.3,0-2.5,0
	c3.5,0,2.1,0-0.1,0c0.8,0,0,0,0.4,0c-0.2,0,3.3,0,4.5,0c1,0-0.2,0,4.4,0c3.4,0-8.5,0.1,0.4,0.1c-1.8,0,5.6-0.1,1.2-0.1
	c2.7,0,3,0,3.6,0c5.4,0,5.3,0,2.1,0c3.1,0-15.5,0-3.6,0c6.9,0,0.6,0,0.1,0c-3.6,0,4.6,0-3.5,0c-0.8,0-2.6,0.1-4.7,0.1
	c5,0,0.3,0.1,2.2,0.1c9.7,0,1.1,0,1.2,0c5.7,0-4.3,0,1.1,0c1.9,0-1-0.1,4.4-0.1c-4.5,0,5.7-0.1-3.3-0.1c-0.2,0-9.8,0-2,0
	c-0.7,0,0.6,0.1,1.4,0.1c9.8,0,7.9,0.4,3.4,0.4c-1.1,0,6.4,0.4-6.3,0.4c-0.5,0-2,0,0.4,0c-1.2,0-2.8,0,1.3,0c-1,0-4,0,0.5,0
	c-2.7,0,9,0,2,0c1.8,0,3.5,0,2.8,0c5.8,0-6.1,0,0.2,0c2.1,0,5.3,0,1.2,0c-4.8,0-8-0.4-4.6-0.4c-7.2,0,0.6-0.2-0.5-0.2
	c3.1,0-5.5-0.1-2.4-0.1c-5.2,0,0.8,0,3.7,0c0,0,8.1,0.3,4.1,0.3c-3.4,0,1.9,0.4-7.8,0.4c2.2,0,4,0,3.8,0c8.4,0-7.6,0-2.3,0
	c2.7,0-7.4-0.4-1.8-0.4c-12.1,0-3.7,0.2-2.5,0.2c-7,0,1.3,0.2-0.2,0.2c3.3,0,3.7,0,4.3,0c10.4,0,4.2-0.4,1.7-0.4
	c-6.5,0,4.6-0.2,2.7-0.2c1.9,0-1.6-0.1-3.7-0.1c-3.6,0-10.6,0-3.6,0c-3.7,0,13.6,0-0.8,0c-3.7,0-15.1,0-1.5,0
	c-0.4,0-1.2,0.4-3.8,0.4c-0.4,0-13.7,0.4-2.7,0.4c4.7,0,0.7,0-0.4,0c-4.1,0,5.5-0.4-1.2-0.4c3.4,0-9.4-0.2-2.3-0.2
	c-5.4,0,2.6-0.1,2.3-0.1c-1.6,0,0.8,0.3,0,0.3c2.1,0-2.8,0.3-0.6,0.3c1,0-2.7,0,4.3,0c5.9,0-3.1-0.3,2.9-0.3c-3.4,0-2-0.2-3-0.2
	c0.4,0,1.4-0.1,0.2-0.1c-3.9,0,13,0,0.3,0c-2,0-10.3,0-2.7,0c1.2,0,4.8,0,0,0c0.5,0,6.5,0-2.6,0c5.4,0-8.7,0-2.9,0
	c-5.8,0,0.8,0-1.7,0c-3.9,0,4.3,0,0.5,0c-4.4,0,4.6,0,3.2,0c7.6,0-2.2,0,5.2,0c-12.6,0-6.7,0-1,0c7.2,0,1.9,0,3.1,0
	c0.7,0,1.7,0-5.2,0c-4,0,1.7,0-1,0c7.9,0-2.8,0,3.1,0c-0.1,0-3.9,0,3,0c-2.7,0-2,0-2.7,0c1.1,0-1.1,0,0.4,0c2.7,0-3.4,0-3.7,0
	c-2.7,0,2.6,0-0.6,0c3.9,0-8.3,0.2-3.9,0.2c6.7,0-4.4,0.2-0.3,0.2c-0.1,0-3.8,0-3.8,0c-0.3,0,0.2,0,1.1,0c-1,0-1,0,3,0
	c4.9,0-4.1,0,2.5,0c5.4,0,2.7,0,3.8,0c1.6,0,2.7-0.2,2.1-0.2c3.9,0-12.6-0.1-4.3-0.1c4.2,0,1.9,0.2,2.4,0.2c5.3,0-8.9,0.2,3.4,0.2
	c9.4,0,3.6,0-0.9,0c-2.4,0-10.4,0,3.2,0c-5,0-5.8,0-3.8,0c-8.5,0-4.7,0-3.4,0c-0.7,0-3.1,0,1.6,0c0.8,0-4.6,0,0.4,0
	c-4.7,0-6.7,0,0.9,0c2.6,0,2.6,0,4.3,0c6.4,0-1.2,0,3.3,0c1.6,0-3.1,0-5.9,0c2,0,0.6,0-2.2,0c3.9,0,4,0,1,0c10.9,0,9.6,0,2.3,0
	c0.2,0,0.3,0,1.3,0c-1.4,0,2.5,0,4.2,0c-6.7,0-0.2,0-7.8,0c-3.3,0,1.6,0,3.9,0c-3.5,0-0.3,0,1.3,0c-4.3,0-2.1,0,1.1,0
	c-3.5,0-11.7,0,0.9,0c1.1,0,12.4,0,3.2,0c-8.1,0,3.1,0,0.5,0c9.8,0-2.2,0-3.2,0c1,0,5.2-0.2-2-0.2c11.2,0-0.1-0.1,0-0.1
	c1.6,0,7.1,0.2,2.1,0.2c2.2,0-0.3,0.2,2.3,0.2c-2.3,0-12.2,0-4.8,0c3.8,0,4.2-0.2,0.6-0.2c-5.3,0-8.6-0.1-0.2-0.1
	c-3.8,0,3,0.2,3.4,0.2c7.2,0,0.3,0.2,0.3,0.2c2.7,0,2.9,0,2.5,0c0,0,4.4,0-0.6,0c2,0-0.6,0-1.6,0c-0.5,0-3.5,0-4.8,0
	c-0.2,0-4-0.2,1.5-0.2c0.7,0,0.9-0.1,0.7-0.1c5.1,0-11.3-0.1-4.2-0.1c0.2,0,1,0.2-0.8,0.2c-3.1,0-4,0.2,1.1,0.2c-2.7,0,0.7,0,3.8,0
	c0.2,0-13,0-3.9,0c2,0-2.2,0-4.6,0c0.7,0,8.1,0,3.2,0c3.7,0,6-0.2,3.4-0.2c-3.5,0,2.4-0.1-1.5-0.1c-3.8,0,2.5,0.2,4.5,0.2
	c5.4,0-4.2,0.2,4,0.2c1.3,0,8.9,0,2.3,0c4.5,0-3.7-0.2-1.2-0.2c-2.8,0,3,0.1,2.2,0.1c-6.5,0,2.9,0.1-0.2,0.1c5.6,0,5.6,0,1.3,0
	c-6,0-9.2,0,0.4,0c-9.4,0,3.8,0,0.4,0c3.4,0,1,0,1.1,0c2.4,0-5.8,0-4.7,0c1.5,0,6.9,0,1.2,0c3.5,0-6.5,0-1.9,0c-3.6,0-6.7,0,1.1,0
	c2.1,0-1,0-4.7,0c7.7,0,8.3,0,5.5,0c1.1,0,6.4-0.3,1-0.3c-3.8,0-4-0.1,1.4-0.1c3.4,0,3.6-0.1,1.6-0.1c-0.1,0,1.9,0-4.6,0
	c1.4,0,1.3,0-2.2,0c0.1,0-1,0-3,0c8.9,0,0.4,0,0.5,0c-0.4,0,8.4,0,1.4,0c-0.2,0,9.9,0,0.3,0c3.9,0-11.1,0,2.9,0c-2.3,0,6.5,0-1.7,0
	c-1.9,0-6.6,0-0.8,0c0.8,0,0.5,0-4.4,0c-4.7,0-3.8,0,1.1,0c-8.8,0,5.2,0-2.4,0c0,0-0.2,0-3.7,0c-6.8,0,0.3,0-0.2,0
	c1.9,0-8.6,0,2.2,0c-1.2,0-3.8,0-0.7,0c-3.2,0-0.9,0,3,0c-7.2,0-4.5,0-5.7,0c3.9,0,1.7,0,2,0c0.5,0-6.3,0,1.9,0c-0.4,0-2.5,0,1.9,0
	c8.2,0,0.5,0.4,0.8,0.4c11,0,2.2,0.4,2.8,0.4c1.5,0,0.8,0-2.2,0c4.3,0,6.9-0.4,3.6-0.4c5.7,0,5.1-0.2,6.1-0.2c2.5,0-8-0.1-2-0.1
	c-5.5,0,1.4,0-2.6,0c-2.1,0,7.3,0,4.5,0c-9.7,0-4.3,0-1.6,0c-8.6,0-3,0-1.1,0c1.2,0-6.6,0-2.3,0c-1.9,0,7.5,0,2.2,0
	c5.3,0,5.8,0,1.7,0c-7.4,0,4.2,0,0.5,0c0.7,0,3.7,0-3.5,0c-8.7,0,2.8,0-3.5,0c-4.2,0,2,0-0.1,0c2.6,0,6.5,0-1.2,0c-5.1,0,7,0-2.1,0
	c-3,0-5.9,0-4.1,0c4.3,0,2.4,0-2.2,0c0.8,0,5.9,0,1.5,0c6.7,0,14.4,0,7.5,0c4.6,0-5.6,0-1.4,0c0.3,0,0.3,0-1.3,0c-9.8,0-8.1,0-2.1,0
	c-1.6,0-0.6,0-4,0c-5.2,0-9.1,0-0.9,0c-4.7,0-0.7,0,0.2,0c-1.3,0,1.9,0,1.8,0c0.7,0,3.8,0,3,0c-2.9,0-1,0,1.4,0c3.9,0-4,0,3,0
	c3.9,0,2.7,0,2.6,0c0.1,0,4.9,0,2.4,0c-6.4,0-2.8,0-2.6,0c4.8,0,1,0-0.8,0c-8,0-4.1,0-6.2,0c-5.4,0,2.6,0-0.4,0c-17.2,0-4.6,0-4.6,0
	c1.6,0-4.9,0-0.4,0c0,0-5.1,0-2.1,0c-0.4,0,9,0,3,0c5.5,0,4.7,0-0.4,0c-12.6,0,1.1,0,3.7,0c6.2,0,4.7,0,4.7,0c4.5,0,4.4,0,1.7,0
	c0.1,0,4.3,0,1.9,0c2.2,0-3,0,1.2,0c-1.6,0,3,0-4.2,0c-3.2,0,4.6,0,1.1,0c4.1,0,0.2,0-0.9,0c-6.3,0-14.7,0-3.6,0c2.8,0,2.4,0,0,0
	c4.3,0,5.3,0,2.6,0c9.9,0-5.2,0-2.3,0c2,0-0.7,0,1.1,0c5.3,0-1.3,0-4.1,0c7,0-4.2,0,1.2,0c5.2,0,2.7,0,5.8,0c-1.5,0-9.7,0-2.2,0
	c-6.1,0-2.8,0-0.2,0c0.4,0,0.8,0-3.8,0c2.3,0-8,0-3.5,0c-3.5,0-3.7,0-2.8,0c11,0,2.1,0,3.2,0c-1.5,0,3.9,0,2.4,0c4.5,0,0,0,1.7,0
	c-0.2,0,7.3,0,3.7,0c-2.2,0,4.5,0-1.9,0c-1.7,0,0.2,0,0.3,0c-3.3,0-6.2,0-2.7,0c1.3,0-7.3,0,1.7,0c5.9,0,10.8,0,2.9,0
	c1.9,0-0.8,0,5.2,0c-3.5,0-6,0-4.6,0c-3.8,0-0.4,0-3.8,0c2.1,0,0.3,0-2.8,0c5.2,0-13.5,0,2,0c6.7,0,0.5,0,1.7,0c3.1,0,5.5,0,7.1,0
	c-4.1,0-3.9,0-4.5,0c11.5,0-4.8,0,1.2,0c7.5,0-9.1,0-4.2,0c-1.1,0,8.2,0,0.2,0c5.8,0-0.4,0-3.3,0c3.8,0-4,0-2.1,0
	c-6.2,0,4.5,0,2.4,0c-8.4,0,1.9,0,3.9,0c0.5,0,6.2,0,1.7,0c0.5,0-4.8,0-4.1,0c11.5,0-4.2,0,1,0c-2.5,0,9.1,0-4.9,0
	c5.3,0-0.4,0,4.8,0c-3.9,0-2.6,0-0.8,0c3,0,15.2,0,7.1,0c3.9,0-1.3,0-1.9,0c-7.5,0,3.4,0,1.1,0c1.2,0,7.8,0-4.3,0
	c-7.5,0-8.3,0-2.1,0c-7.9,0-10.7,0-6.8,0c-7.5,0-6.4,0,5.1,0c1.1,0,1,0,2.5,0c0.4,0,4.8,0-0.4,0c2.2,0-0.8,0,3.4,0
	c-5.2,0,4.6,0-2.5,0c6.9,0-5,0,3.1,0c2.6,0-9.4,0,5.2,0c5.7,0-3.2,0,2.6,0c-4.5,0-4,0,0.2,0c3.1,0-1.9,0-3.9,0c-6.5,0,3,0-2.2,0
	c-2.1,0,9.1,0,4.1,0c5.6,0-1.6,0-1.2,0c-4,0-9.1,0-2.6,0c-7.6,0,5.8,0,0.7,0c-3.2,0,7.9,0,2.1,0c-8.3,0,0.7,0,2.4,0
	c3.4,0,3.4,0,3.3,0c0,0,0.4,0-1.8,0c-2.4,0,2.1,0-3.9,0c5.8,0,1.9,0,3.3,0c2.4,0,2.9,0,2,0c0.6,0,0.9,0-2.8,0c-3,0,3.5,0,1.8,0
	c1.4,0,2.3,0,2.8,0c1,0,1.5,0,1.6,0c0.2,0-1,0-2.6-0.1c-0.5,0-0.6,0-3.4,0c-7.3,0-4.8,0-1.5,0c-4.6,0-0.3,0-3.7,0c-4.3,0,6,0,2.6,0
	c-0.3,0-3.2,0-3.2,0c1,0-1.2,0-0.9,0c0.8,0,6.5,0,2.6,0c7.3,0,7.3,0,2,0c5.2,0-4.5,0-5.2,0c4.1,0,4.9,0,0.7,0c2.2,0,2.1,0,2.9,0
	c0.6,0-9.9,0-4.8,0c6.9,0,0.6,0,3.7,0c2,0-4.4,0-3.7,0c-0.5,0-3,0-0.2,0c-11.8,0,1.5,0-3.5,0c10.9,0,0.9,0,2.5,0c-11,0,4.5,0-3.1,0
	c-1,0,0.2,0,1,0c1.5,0,6.8,0-1.5,0c7,0,10.2,0,6.6,0c-1.2,0-2.9,0-3.2,0c-4.3,0-5.4,0,0.7,0c3.1,0,2.4,0-3.8,0c4.6,0,0.8,0,1.4,0
	c3.7,0,2.3,0,1.8,0c-9.1,0-6.4,0-3.3,0c2.5,0-0.8,0,3.2,0c1.8,0,5.5,0,3.6,0c-0.6,0-4.9,0,0.1,0c9,0,9.2,0,1.5,0c7.9,0-3.1,0-1.6,0
	c9.7,0-1,0,3.9,0c-5.3,0,2.3,0-2.3,0c5.7,0-9.7,0-4,0c-3.7,0-3.5,0-2.7,0c4.5,0-1.7,0,1.7,0c-8.1,0,1.3,0,2,0c-3,0,8.4,0,4.2,0
	c-2.3,0,1.8,0,3.9,0c2.5,0,2.6,0,0.4,0c2.1,0,2,0,0.5,0c1.3,0,1.5,0-1.8,0c3.4,0,3.4-0.1,2.7-0.1c0.4,0-8-0.1-2.8-0.1
	c3.3,0,3.7,0,0.6,0c2.7,0,2.4,0,1.7,0c0.9,0,0.8,0-5.1,0c5.2,0-2,0-2.3,0c3.2,0,8.4,0,2.1,0c6.3,0-0.8,0,1.3,0c-1.9,0-7.9,0,3,0
	c2.1,0,1.7,0-2.1,0c-3.5,0,4.1,0,2.3,0c1.5,0,3.9-0.1,2.2-0.1c1.6,0,0.8-0.1-0.4-0.1c-2.3,0-0.1,0-5.8-0.1c-2.6,0,5.6,0,3-0.1
	c-8.7,0,2.9-0.1-1-0.1c-4.9,0,3.6,0-4.4,0c4,0-0.2,0,2.4,0c5.4,0,5.3,0,2,0c3.4,0,3.6,0,4,0c-0.4,0-0.7,0-1.8,0c1.3,0-2.5,0-3.5,0
	c5.1,0,0.9,0-0.1-0.1c-10.3,0-0.7-0.1,0.1-0.1c1.2,0,4.6,0,1.4,0c3.7,0,3.3,0,2.6,0c1,0,1.3,0-2.4-0.1c-4.4,0-5.7,0-4.1,0
	c5.7,0-2.7,0-0.4,0c-6.6,0,6.1,0-3.7,0c0.5,0-0.8,0,0.9,0c2.8,0,5.4,0-0.5,0c-6.7,0,1.8,0,0.3,0c2.3,0,7.9,0,4.1,0c2.5,0-3.5,0-2,0
	c-6.1,0-8.2,0-4,0c1.9,0,4.5,0,4.5,0c4.6,0,1.4,0-3.5,0c1.3,0-0.2,0,0.9,0c1,0,0,0-3.8,0c6.1,0-0.7,0,2.3,0c-2.6,0,0.6,0-5.4,0
	c-1.5,0,0.1,0,2.4,0c-1.3,0-3.2,0,2.4,0c-9.8,0,1.8,0,4.4,0c-2.3,0,8.1,0,2.8,0c-10.2,0-1,0,0.5,0c1,0,4.8,0-0.6,0c-4.6,0-6.3,0-3,0
	c-3.2,0,4.7,0-4.2,0c-0.5,0,5.1,0,3.8,0c3.5,0,6.1,0,3.9,0c-11.9,0,2.4,0,1.2,0c-1.4,0,3.8,0,0.5,0c-2.4,0-14.5,0-3.1,0
	c2.6,0,0.5,0,3.2,0c3.3,0-0.9,0,1,0c2.5,0,3.8,0,4.6,0c1.5,0,2.5,0,3.3,0c3,0,0.5-0.1-5.3-0.1c4.9,0,4.7,0,3.2,0c-0.7,0-1.5,0-2.2,0
	c-0.7,0-1,0-2.2,0c-14.2,0,0.5,0-3.5,0c-12.1,0,0.3,0,0.2,0c4.2,0,4.1,0,0.2,0c4,0,3.6,0,3.5-0.1c0.3,0,0.2,0-1.6-0.1
	c1.7,0-13.8,0-2.6,0c-5,0-3.9,0-4.5,0c-1.9,0-2,0-1.4,0c4.3,0-13.3,0-1.8,0c-1.2,0,5.1,0,1.8,0c3.6,0-1.9,0,2.6,0c-0.3,0-3,0,1.6,0
	c-5.1,0,6.6,0,3,0c3.6,0-3,0-1.1,0c4,0-5.5,0-1.7,0c-0.5,0-5.7,0,1.5,0c-4.7,0,5,0,3.9,0c1.1,0,0.8,0-1.6,0c-5.6,0-7.3,0-3.4,0
	c-1.7,0,5.6,0,2,0c0.3,0-0.4,0-4.2,0c-4.8,0-2.9,0,0.2,0c2.8,0-5.2,0-4.7,0c-1.5,0-3.1,0-0.4,0c0.5,0-4,0-4.1,0c-2.9,0,1.2,0-2.6,0
	c-0.7,0,2.6,0,3.8,0c5.2,0,7,0,3.3,0c-1.5,0-2,0,1,0c-5.2,0-0.2,0,2.4,0c-5.1,0-4.7,0-1.5,0c0.5,0,5.6,0,2.8,0c4.2,0-4,0-1.6,0
	c-8.9,0,0.7,0,1,0c-5,0-1.4,0,5.9,0c1.9,0,2.2,0,3.1,0c0.9,0,1.6,0,2.3,0c1.4,0,2.5,0,3.3,0c3,0,0.7-0.1-5.5-0.1c1.7,0,2,0,1.5,0
	c-0.4,0-1.5,0-2.7,0c-0.4,0,0.6,0-1.3-0.1c-9.4,0-0.5,0-3.4,0c4.3,0-3.6,0-0.2,0c-1.5,0-2.6,0,1.1-0.1c0.5,0,3.5,0-2.2,0
	c-0.9,0-4.1,0,2.1,0c3.7,0-2.6,0,1.6,0c1.7,0,2.9,0,3.1,0c1.6,0,3.2-0.1,4.1-0.1c1.9-0.1,1.4-0.1-6.9-0.2c4.5-0.1,3.1-0.2,2.9-0.3
	c-0.2-0.1,9.3-0.2-3.2-0.3c1.8,0,2.4-0.1,1.9-0.1c-0.2,0-0.1-0.1-4.1-0.1c3.3,0,3.3,0,1.4-0.1c1.9,0-1.9,0-3.6-0.1
	c5.4,0-5.7,0,1-0.1c4.4,0,4.3,0,5.5-0.1c2.1,0,1.6-0.1,1.3-0.1c-0.3,0-0.3-0.1,2.7-0.1c-5.4-0.1,6.1-0.2-0.9-0.3
	c7.1-0.1,7-0.2,0.4-0.3c6.6-0.1-5.4-0.2-3.5-0.3c5.1-0.1,3-0.2,1.1-0.3c-1.9-0.1-2.7-0.2,2.1-0.3c-2.1-0.1-0.5-0.2,0.7-0.3
	c1.1-0.1,1.8-0.2-2.1-0.3c7.7-0.1,4.7-0.2,1-0.3c6.7-0.1-8-0.2,1.3-0.3c5.7-0.1-1.5-0.2-0.5-0.3c-0.4-0.1-3.6-0.1-5.4-0.2
	c-1.5-0.1-3.2-0.1,3.3-0.2c3.8-0.1,5.6-0.1,6-0.2c0.4-0.1-0.8-0.1-2.8-0.2c0-0.1-3.6-0.2,1-0.3c-6.8-0.2-0.7-0.5-2.1-0.7
	c-5.7-0.1,4.7-0.2-2.6-0.3c-11.4-0.1,7.2-0.2,2.2-0.4c4.5-0.1,4.3-0.2,3.4-0.4c0.8-0.1,1-0.1,0.5-0.2c0.7-0.1,0.7-0.1-4.4-0.2
	c-7.3-0.2,4.2-0.5-3.9-0.7c-1.4,0-2.7-0.1-3.9-0.1c-1.2,0-2.2-0.1-3-0.1c-5.9-0.1-6.9-0.1-2.7-0.2c1.7-0.1,1.6-0.1,3.1-0.2
	c1.1,0,2.5-0.1,4.2-0.1c1.7,0,3.8-0.1,6.3-0.1c3.1-0.2,3-0.5-0.8-0.8c-0.6-0.1,3.1-0.2-2.8-0.4c-0.9-0.1,5.7-0.1-0.4-0.2
	c-6.6-0.1,5.7-0.1,4.7-0.2C90,22.5,90.3,20.8,90.2,19.3z"/>
<g>
	<linearGradient id="SVGID_2_" gradientUnits="userSpaceOnUse" x1="6.1104" y1="38.1128" x2="25.4609" y2="38.1128">
		<stop  offset="0" style="stop-color:#FFD900"/>
		<stop  offset="1" style="stop-color:#FF931E"/>
	</linearGradient>
	<path class="st1" d="M22.5,36.3c-0.1,0.3-0.2,0.5-0.3,0.7s-0.2,0.3-0.4,0.4s-0.3,0.2-0.4,0.2c-0.2,0-0.3,0-0.6,0
		c-0.9-0.1-1.7-0.1-2.4-0.2c-0.7,0-1.2-0.1-1.8-0.1c-0.5,0-0.9,0-1.3,0.1c-0.4,0-0.7,0.1-1.1,0.2c-0.1,0.2-0.4,0.6-0.7,1.1
		s-0.6,1.1-1,1.7s-0.7,1.3-1.1,2.1s-0.7,1.4-1,2.1c-0.7,1.5-1.3,2.6-1.8,3.3S7.8,49,7.4,49c-0.4,0-0.8-0.1-1-0.2
		c-0.2-0.2-0.3-0.4-0.3-0.7c0-0.4,0.1-0.9,0.4-1.6S7.2,45,7.6,44c0.2-0.4,0.4-0.7,0.6-1.1s0.4-0.8,0.6-1.2s0.4-0.8,0.6-1.2
		s0.4-0.7,0.6-1c0.2-0.3,0.3-0.6,0.4-0.8c0.1-0.2,0.2-0.4,0.2-0.4c0-0.1,0.1-0.1,0.1-0.2c0,0,0-0.1,0-0.1c0,0,0,0,0,0s0,0,0-0.1
		h-0.3c-0.4,0-0.7,0-0.9-0.1s-0.3-0.2-0.3-0.4c0-0.1,0-0.2,0.1-0.4c0.2-0.4,0.4-0.7,0.7-0.9s0.5-0.3,0.7-0.4s0.5-0.1,0.7-0.1
		c0.2,0,0.4,0,0.5,0c0.3-0.5,0.5-1.1,0.8-1.6s0.5-1.1,0.8-1.6c0.5-1,1-1.8,1.5-2.5c0.5-0.7,1.1-1.2,1.7-1.6s1.3-0.7,2-0.9
		s1.6-0.3,2.5-0.3c0.9,0,1.5,0,2.1,0.1c0.5,0,0.9,0.1,1.1,0.1c0.4,0.1,0.7,0.3,0.8,0.5c0.2,0.3,0.2,0.5,0.2,0.9c0,0.2,0,0.5-0.1,0.7
		c-0.1,0.2-0.2,0.5-0.3,0.7c-0.1,0.2-0.3,0.4-0.5,0.5c-0.2,0.1-0.4,0.2-0.5,0.2c-0.1,0-0.2,0-0.3-0.1c-0.2-0.1-0.4-0.2-0.6-0.3
		c-0.2-0.1-0.3-0.1-0.5-0.2c-0.2,0-0.4-0.1-0.6-0.1c-0.2,0-0.5,0-0.8,0c-0.3,0-0.7,0-1.2,0c-0.5,0-1,0-1.7,0.1
		c-0.3,0.5-0.5,0.9-0.7,1.3c-0.2,0.4-0.5,0.8-0.7,1.2c-0.2,0.4-0.4,0.8-0.7,1.2c-0.2,0.4-0.5,0.8-0.8,1.3c0.4-0.1,0.8-0.2,1.2-0.3
		c0.4-0.1,0.9-0.2,1.3-0.3c0.4-0.1,0.9-0.1,1.3-0.2s0.9-0.1,1.3-0.1c0.7,0,1.3,0.1,1.6,0.2s0.5,0.4,0.5,0.7c0,0.1,0,0.2,0,0.3
		S22.6,36.1,22.5,36.3z"/>
	<linearGradient id="SVGID_3_" gradientUnits="userSpaceOnUse" x1="21.2275" y1="38.0909" x2="39.5234" y2="38.0909">
		<stop  offset="0" style="stop-color:#FFD900"/>
		<stop  offset="1" style="stop-color:#FF931E"/>
	</linearGradient>
	<path class="st2" d="M28.9,40.5c-0.2,0.4-0.4,0.9-0.6,1.5s-0.5,1.2-0.7,1.8S27,45,26.7,45.6s-0.6,1.2-0.9,1.6
		c-0.3,0.5-0.7,0.9-1,1.2c-0.3,0.3-0.7,0.5-1.1,0.5c-0.3,0-0.6,0-0.7-0.1c-0.2-0.1-0.3-0.2-0.5-0.4c-0.1-0.1-0.2-0.3-0.2-0.5
		c0-0.2-0.1-0.3-0.1-0.5c0-0.2,0-0.5,0.1-0.7c0.1-0.2,0.2-0.5,0.3-0.7l5.6-10.3c0.2-0.4,0.5-0.8,0.7-1c0.2-0.2,0.4-0.4,0.6-0.5
		c0.2-0.1,0.4-0.2,0.5-0.2s0.3,0,0.4,0c0.2,0,0.3,0.1,0.5,0.2s0.2,0.3,0.2,0.7c0,0.3-0.1,0.7-0.2,1.3s-0.5,1.3-0.9,2.1
		c0.8-0.1,1.5-0.2,2.3-0.4c0.7-0.2,1.4-0.5,2-0.8c0.6-0.4,1.1-0.8,1.4-1.3c0.4-0.5,0.5-1.1,0.5-1.8c0-0.6-0.1-1.1-0.3-1.7
		c-0.2-0.5-0.5-1-0.8-1.4c-0.4-0.4-0.8-0.7-1.4-1c-0.5-0.2-1.2-0.4-1.9-0.4c-1,0-1.8,0.1-2.5,0.3c-0.7,0.2-1.3,0.4-1.8,0.7
		s-0.9,0.6-1.2,1s-0.6,0.8-0.9,1.2c-0.2,0.4-0.5,0.8-0.6,1.2s-0.4,0.7-0.6,1s-0.4,0.5-0.7,0.7s-0.6,0.3-0.9,0.3
		c-0.5,0-0.8-0.1-1.1-0.4c-0.2-0.2-0.3-0.6-0.3-1s0.1-0.9,0.4-1.5s0.6-1.1,1-1.6s1-1.1,1.6-1.5c0.6-0.5,1.4-0.9,2.2-1.3
		s1.7-0.7,2.6-0.9c0.9-0.2,1.9-0.3,3-0.3c1,0,1.9,0.1,2.8,0.4c0.9,0.3,1.7,0.7,2.4,1.3s1.2,1.3,1.7,2.1c0.4,0.8,0.6,1.8,0.6,2.9
		c0,1-0.2,2-0.7,2.8s-1.2,1.5-2,2.1c-0.8,0.6-1.8,1-2.9,1.3c-1.1,0.3-2.2,0.5-3.5,0.5c-0.3,0-0.5,0-0.8,0S29.2,40.5,28.9,40.5z"/>
	<linearGradient id="SVGID_4_" gradientUnits="userSpaceOnUse" x1="37.4434" y1="38.0835" x2="56.5742" y2="38.0835">
		<stop  offset="0" style="stop-color:#FFD900"/>
		<stop  offset="1" style="stop-color:#FF931E"/>
	</linearGradient>
	<path class="st3" d="M45.5,38.8c0.1,0,0.1,0,0.2,0s0.1,0,0.2,0c0.8,0,1.7-0.2,2.4-0.5c0.8-0.4,1.4-0.8,2-1.4s1-1.2,1.3-1.9
		c0.3-0.7,0.5-1.4,0.5-2c0-0.5-0.1-0.9-0.3-1.3c-0.2-0.4-0.4-0.8-0.8-1.1c-0.4-0.3-0.8-0.6-1.4-0.7c-0.6-0.2-1.3-0.3-2-0.3
		c-0.9,0-1.7,0.1-2.3,0.2s-1.2,0.4-1.7,0.6c-0.5,0.3-0.9,0.6-1.2,0.9c-0.3,0.3-0.6,0.7-0.8,1.1c-0.2,0.4-0.4,0.7-0.6,1.1
		s-0.4,0.6-0.6,0.9c-0.2,0.3-0.4,0.5-0.7,0.6s-0.5,0.2-0.9,0.2c-0.5,0-0.9-0.1-1.1-0.4c-0.2-0.3-0.4-0.6-0.4-1
		c0-0.4,0.1-0.9,0.3-1.4c0.2-0.5,0.6-1,1-1.5c0.4-0.5,0.9-1,1.6-1.4c0.6-0.5,1.3-0.9,2.1-1.2c0.8-0.3,1.6-0.6,2.5-0.8
		s1.9-0.3,2.9-0.3c1,0,2,0.1,2.9,0.4s1.7,0.6,2.4,1.1s1.3,1.1,1.7,1.9s0.6,1.7,0.6,2.7c0,0.7-0.1,1.3-0.4,2c-0.3,0.6-0.6,1.2-1,1.7
		c-0.4,0.5-0.9,1-1.5,1.5c-0.6,0.5-1.2,0.9-1.8,1.2s-1.3,0.6-2,0.9s-1.3,0.4-1.9,0.5c0.1,0.5,0.2,1,0.4,1.5c0.2,0.6,0.4,1.1,0.7,1.6
		c0.3,0.5,0.6,0.9,1,1.3s0.7,0.6,1.1,0.6c0.1,0,0.2,0,0.2,0s0.1,0,0.2,0c0.7,0,1.3-0.1,1.9-0.4s1-0.5,1.4-0.8
		c0.4-0.3,0.8-0.7,1.1-1.1c0.3-0.3,0.6-0.5,0.9-0.5c0.2,0,0.4,0.1,0.5,0.2s0.2,0.3,0.2,0.6c0,0.2-0.1,0.5-0.2,0.8
		c-0.1,0.3-0.4,0.6-0.7,0.9c-1,0.9-2,1.6-3,2.1c-1,0.4-1.9,0.7-2.7,0.7c-0.7,0-1.4-0.2-1.9-0.6s-1.1-0.9-1.6-1.6S45.4,44.9,45,44
		c-0.4-0.9-0.8-1.9-1.1-2.9c-0.2,0.4-0.4,0.9-0.5,1.4c-0.2,0.5-0.4,1.1-0.6,1.7s-0.4,1.1-0.7,1.7c-0.2,0.6-0.5,1.1-0.8,1.5
		s-0.6,0.8-0.9,1.1s-0.7,0.4-1.1,0.4c-0.3,0-0.6,0-0.8-0.1s-0.3-0.2-0.5-0.4S38,48.1,38,47.9c0-0.2-0.1-0.3-0.1-0.5
		c0-0.2,0-0.5,0.1-0.7s0.1-0.5,0.2-0.7l4.3-7.9c0.4-0.7,0.7-1.3,1.1-1.9s0.7-1.2,1.1-1.6c0.4-0.5,0.7-0.9,1-1.2
		c0.3-0.3,0.6-0.4,0.9-0.4c0.1,0,0.2,0,0.2,0s0.2,0.1,0.3,0.1c0.1,0.1,0.1,0.2,0.2,0.3s0.1,0.3,0.1,0.5s-0.1,0.4-0.2,0.8
		s-0.2,0.7-0.4,1.1s-0.4,0.9-0.6,1.4C46,37.8,45.8,38.3,45.5,38.8z"/>
	<linearGradient id="SVGID_5_" gradientUnits="userSpaceOnUse" x1="59.3428" y1="42.9395" x2="67.6484" y2="42.9395">
		<stop  offset="0" style="stop-color:#FFD900"/>
		<stop  offset="1" style="stop-color:#FF931E"/>
	</linearGradient>
	<path class="st4" d="M67.1,42.1c0.2,0,0.3,0.1,0.4,0.2s0.1,0.3,0.1,0.5c0,0.2-0.1,0.5-0.3,0.7c-0.2,0.2-0.5,0.3-0.9,0.3h-6.6
		c-0.2,0-0.3-0.1-0.4-0.2s-0.1-0.3-0.1-0.4c0-0.1,0-0.3,0.1-0.4c0.1-0.1,0.1-0.3,0.2-0.4s0.3-0.2,0.4-0.3c0.2-0.1,0.4-0.1,0.6-0.1
		H67.1z"/>
	<linearGradient id="SVGID_6_" gradientUnits="userSpaceOnUse" x1="68.1025" y1="39.8999" x2="80.7002" y2="39.8999">
		<stop  offset="0" style="stop-color:#FFD900"/>
		<stop  offset="1" style="stop-color:#FF931E"/>
	</linearGradient>
	<path class="st5" d="M73.4,40.2c-0.4,0.7-0.7,1.4-1,2.1s-0.6,1.3-0.9,1.9c-0.1,0.2-0.2,0.5-0.3,0.8c-0.1,0.3-0.2,0.6-0.2,0.8
		c0,0.1,0,0.2,0.1,0.3c0.1,0.1,0.2,0.1,0.3,0.1c0.2,0,0.5-0.1,0.8-0.2c0.3-0.1,0.6-0.3,1-0.5s0.7-0.4,1.1-0.7
		c0.4-0.3,0.8-0.5,1.2-0.8c0.4-0.3,0.8-0.6,1.1-0.8c0.4-0.3,0.7-0.5,0.9-0.8c0.2-0.1,0.3-0.2,0.4-0.2c0.2,0,0.3,0.1,0.4,0.2
		s0.2,0.3,0.2,0.6s-0.1,0.5-0.2,0.7s-0.3,0.5-0.6,0.7c-0.6,0.6-1.3,1.1-1.9,1.6c-0.7,0.5-1.3,1-1.9,1.4c-0.6,0.4-1.3,0.7-1.9,0.9
		s-1.2,0.4-1.8,0.4c-0.4,0-0.7-0.1-1-0.2c-0.3-0.1-0.5-0.2-0.6-0.4c-0.2-0.2-0.3-0.4-0.3-0.6s-0.1-0.5-0.1-0.8c0-0.5,0.1-1,0.2-1.5
		s0.4-1,0.6-1.4c0.3-0.6,0.6-1.2,0.9-1.8c0.3-0.6,0.6-1.2,0.8-1.7H70c-0.5,0-0.9-0.1-1.1-0.3s-0.3-0.4-0.3-0.6c0-0.1,0-0.2,0.1-0.4
		c0.1-0.1,0.2-0.3,0.3-0.4c0.1-0.1,0.3-0.2,0.4-0.3s0.4-0.1,0.6-0.1h1.6l3.1-6.1c0.2-0.4,0.4-0.6,0.7-0.8c0.3-0.2,0.6-0.2,0.9-0.2
		c0.3,0,0.6,0.1,0.8,0.2s0.4,0.4,0.4,0.8c0,0.2,0,0.4-0.1,0.6c-0.1,0.2-0.2,0.4-0.3,0.7c-0.1,0.2-0.2,0.4-0.3,0.6
		c-0.1,0.2-0.3,0.5-0.4,0.7c-0.1,0.3-0.3,0.5-0.4,0.8s-0.3,0.6-0.4,0.8c-0.3,0.6-0.7,1.3-1.1,2h4.8c0.2,0,0.4,0,0.6,0
		s0.4,0.1,0.5,0.1c0.1,0.1,0.3,0.2,0.3,0.3s0.1,0.3,0.1,0.5c0,0.1,0,0.2-0.1,0.3c0,0.1-0.1,0.2-0.2,0.3s-0.2,0.2-0.4,0.2
		c-0.2,0.1-0.4,0.1-0.6,0.1L73.4,40.2z"/>
	<linearGradient id="SVGID_7_" gradientUnits="userSpaceOnUse" x1="74.8262" y1="38.8672" x2="91.5986" y2="38.8672">
		<stop  offset="0" style="stop-color:#FFD900"/>
		<stop  offset="1" style="stop-color:#FF931E"/>
	</linearGradient>
	<path class="st6" d="M75.3,46.1c0.2-0.5,0.5-1.1,0.8-1.7s0.6-1.2,0.9-1.8c0.3-0.6,0.6-1.2,0.9-1.7c0.3-0.5,0.5-1,0.7-1.4l4.8-9.5
		c0.1-0.1,0.1-0.2,0.3-0.4s0.3-0.2,0.4-0.3c0.2-0.1,0.3-0.2,0.5-0.2S85,29,85.2,29c0.4,0,0.7,0.1,0.9,0.2c0.2,0.2,0.2,0.4,0.2,0.6
		c0,0.2-0.1,0.4-0.2,0.7s-0.2,0.5-0.4,0.7c-0.4,0.7-0.8,1.5-1.2,2.2c-0.4,0.7-0.8,1.5-1.2,2.3c-0.4,0.8-0.8,1.5-1.2,2.3
		c-0.4,0.7-0.8,1.5-1.3,2.2c0.3-0.3,0.6-0.5,0.9-0.8c0.3-0.3,0.6-0.5,1-0.8s0.8-0.4,1.2-0.6s0.9-0.2,1.4-0.2c0.3,0,0.6,0,0.9,0.1
		s0.5,0.2,0.7,0.3c0.2,0.1,0.4,0.3,0.5,0.5c0.1,0.2,0.2,0.5,0.2,0.8c0,0.4-0.1,0.8-0.2,1.2c-0.1,0.4-0.3,0.7-0.5,1s-0.4,0.6-0.7,0.9
		s-0.5,0.6-0.7,0.9c-0.2,0.3-0.4,0.6-0.6,1c-0.2,0.3-0.3,0.7-0.3,1.1c0,0,0,0,0,0.1c0,0,0,0,0,0.1c0,0.2,0.1,0.3,0.2,0.4
		c0.1,0,0.3,0.1,0.5,0.1c0.3,0,0.5-0.1,0.8-0.2c0.3-0.1,0.6-0.2,0.9-0.4c0.3-0.2,0.6-0.4,0.9-0.6c0.3-0.2,0.6-0.4,0.9-0.7
		c0.3-0.2,0.5-0.4,0.8-0.7s0.4-0.4,0.6-0.5c0.1-0.1,0.2-0.1,0.3-0.2s0.2-0.1,0.3-0.1c0.2,0,0.3,0.1,0.4,0.2c0.1,0.1,0.2,0.3,0.2,0.5
		c0,0.2-0.1,0.4-0.2,0.7s-0.4,0.5-0.7,0.8c-0.5,0.5-1.1,0.9-1.6,1.3s-1.1,0.8-1.7,1.1s-1.1,0.6-1.7,0.8s-1.1,0.3-1.6,0.3
		c-0.7,0-1.3-0.2-1.7-0.5c-0.4-0.3-0.6-0.8-0.6-1.5c0-0.5,0.1-1,0.3-1.4c0.2-0.4,0.4-0.9,0.6-1.3c0.2-0.4,0.5-0.8,0.8-1.2
		c0.3-0.4,0.5-0.8,0.7-1.1c0.1-0.2,0.2-0.3,0.3-0.5c0.1-0.1,0.1-0.3,0.1-0.5c0-0.1,0-0.3-0.1-0.4s-0.2-0.1-0.4-0.1
		c-0.6,0-1.1,0.1-1.6,0.4s-0.9,0.6-1.3,1.1s-0.8,0.9-1.1,1.4s-0.7,1-1,1.5c-0.1,0.2-0.3,0.5-0.4,0.7c-0.1,0.3-0.3,0.6-0.4,0.9
		s-0.3,0.6-0.5,0.9c-0.2,0.3-0.3,0.5-0.5,0.8s-0.4,0.4-0.6,0.5c-0.2,0.1-0.4,0.2-0.6,0.2c-0.3,0-0.6-0.1-0.8-0.3
		c-0.2-0.2-0.3-0.5-0.3-0.8c0-0.2,0-0.5,0.1-0.7C75,46.7,75.1,46.4,75.3,46.1z"/>
	<linearGradient id="SVGID_8_" gradientUnits="userSpaceOnUse" x1="88.7715" y1="43.2251" x2="101.7646" y2="43.2251">
		<stop  offset="0" style="stop-color:#FFD900"/>
		<stop  offset="1" style="stop-color:#FF931E"/>
	</linearGradient>
	<path class="st7" d="M96.5,37.7c0.8,0,1.4,0.2,1.8,0.6s0.6,0.9,0.6,1.6c0,0.4-0.1,0.8-0.3,1.3s-0.6,0.9-1.1,1.4s-1.2,0.9-2.1,1.4
		c-0.9,0.5-2,1-3.3,1.5c0,0.3,0.2,0.5,0.5,0.7c0.3,0.2,0.6,0.2,1,0.2c0.4,0,0.9-0.1,1.4-0.2c0.5-0.1,1-0.3,1.5-0.5
		c0.5-0.2,1-0.4,1.5-0.7c0.5-0.2,0.9-0.5,1.3-0.7s0.7-0.4,1-0.6s0.4-0.3,0.5-0.3c0.1-0.1,0.2-0.1,0.2-0.1c0.1,0,0.1,0,0.2,0
		c0.1,0,0.2,0,0.3,0.1s0.1,0.1,0.2,0.2c0.1,0.1,0.1,0.2,0.1,0.2c0,0.1,0,0.2,0,0.2c0,0.1,0,0.2,0,0.3c0,0.1-0.1,0.3-0.2,0.4
		c0,0-0.2,0.2-0.5,0.4c-0.3,0.2-0.6,0.5-1.1,0.8s-1,0.6-1.5,0.9s-1.2,0.6-1.8,0.9s-1.3,0.5-2,0.7c-0.7,0.2-1.4,0.3-2.1,0.3
		c-0.6,0-1.1-0.1-1.6-0.3c-0.5-0.2-0.8-0.5-1.2-0.9s-0.6-0.8-0.7-1.3s-0.2-1-0.2-1.6c0-0.4,0.1-0.9,0.2-1.4s0.4-1,0.7-1.5
		s0.7-1,1.1-1.5c0.5-0.5,1-0.9,1.5-1.3s1.2-0.7,1.9-0.9S95.7,37.7,96.5,37.7z M95.9,39.7c0,0-0.1,0-0.1,0s-0.1,0-0.1,0
		c-0.4,0-0.7,0.1-1,0.2s-0.6,0.3-0.9,0.6c-0.3,0.2-0.5,0.5-0.7,0.8s-0.4,0.6-0.6,0.9s-0.3,0.6-0.4,0.9c-0.1,0.3-0.2,0.5-0.3,0.7
		c0.3-0.2,0.7-0.4,1.1-0.6c0.4-0.2,0.7-0.4,1-0.6s0.6-0.4,0.8-0.6s0.4-0.3,0.5-0.3c0.4-0.3,0.7-0.5,0.9-0.8c0.2-0.2,0.2-0.4,0.2-0.6
		c0-0.1,0-0.3-0.1-0.4S96.1,39.8,95.9,39.7z"/>
	<linearGradient id="SVGID_9_" gradientUnits="userSpaceOnUse" x1="98.9521" y1="43.2398" x2="121.2178" y2="43.2398">
		<stop  offset="0" style="stop-color:#FFD900"/>
		<stop  offset="1" style="stop-color:#FF931E"/>
	</linearGradient>
	<path class="st8" d="M104.8,47.9c0-0.5,0.1-0.9,0.3-1.4s0.5-1,0.8-1.5s0.7-1,1.1-1.6c0.4-0.5,0.7-1.1,1.1-1.6
		c0.1-0.2,0.2-0.3,0.2-0.4c0.1-0.1,0.1-0.3,0.1-0.4c0-0.2,0-0.3-0.1-0.4c-0.1-0.1-0.2-0.2-0.4-0.2c-0.4,0-0.8,0.1-1.2,0.3
		s-0.7,0.4-1.1,0.7c-0.3,0.3-0.7,0.6-1,1c-0.3,0.4-0.6,0.7-0.9,1.1s-0.5,0.8-0.8,1.1s-0.4,0.7-0.6,1c-0.2,0.3-0.3,0.7-0.5,1.1
		s-0.3,0.7-0.5,1.1c-0.2,0.3-0.4,0.6-0.6,0.8c-0.2,0.2-0.5,0.3-0.8,0.3c-0.4,0-0.6-0.1-0.8-0.3S99,47.9,99,47.6
		c0-0.2,0.1-0.4,0.2-0.8s0.3-0.8,0.5-1.3c0.2-0.5,0.4-1,0.7-1.6s0.5-1.1,0.8-1.7c0.2-0.5,0.5-1.1,0.7-1.5c0.2-0.5,0.4-0.9,0.5-1.2
		c0.2-0.4,0.4-0.7,0.7-0.9s0.6-0.3,0.9-0.3c0.2,0,0.5,0.1,0.7,0.3c0.2,0.2,0.3,0.4,0.3,0.8c0,0.3-0.1,0.5-0.2,0.8
		c0.3-0.2,0.5-0.5,0.8-0.8s0.6-0.5,1-0.8c0.4-0.2,0.8-0.4,1.2-0.6s0.9-0.2,1.5-0.2c0.3,0,0.5,0,0.8,0.1s0.5,0.2,0.7,0.3
		c0.2,0.1,0.3,0.3,0.5,0.6s0.2,0.5,0.2,0.8c0.2-0.2,0.5-0.4,0.7-0.7c0.3-0.2,0.5-0.4,0.9-0.6c0.3-0.2,0.6-0.3,1-0.4s0.8-0.2,1.2-0.2
		c0.3,0,0.6,0,0.9,0.1s0.6,0.2,0.8,0.3c0.2,0.2,0.4,0.4,0.5,0.6c0.1,0.3,0.2,0.6,0.2,0.9c0,0.6-0.1,1.1-0.4,1.7
		c-0.3,0.5-0.6,1-0.9,1.5c-0.1,0.1-0.3,0.3-0.5,0.6s-0.4,0.5-0.6,0.7s-0.3,0.5-0.5,0.8c-0.1,0.3-0.2,0.5-0.2,0.8
		c0,0.2,0.1,0.4,0.2,0.4c0.1,0.1,0.3,0.1,0.5,0.1c0.4,0,0.9-0.1,1.3-0.4s0.9-0.5,1.4-0.9c0.5-0.3,0.9-0.7,1.3-1.1
		c0.4-0.4,0.7-0.7,0.9-0.9c0.1-0.1,0.1-0.1,0.2-0.1s0.2,0,0.2,0c0.2,0,0.3,0.1,0.5,0.2s0.2,0.4,0.2,0.6c0,0.2-0.1,0.4-0.2,0.6
		s-0.3,0.5-0.6,0.7c-0.5,0.5-1.1,1-1.6,1.5c-0.6,0.5-1.1,0.9-1.7,1.2c-0.6,0.4-1.1,0.6-1.7,0.9s-1.1,0.3-1.7,0.3
		c-0.7,0-1.3-0.2-1.8-0.5s-0.7-0.9-0.7-1.6c0-0.5,0.1-0.9,0.3-1.4s0.4-0.8,0.7-1.2c0.3-0.4,0.6-0.8,0.9-1.2s0.6-0.7,0.8-1.1
		c0.1-0.2,0.2-0.3,0.2-0.4c0.1-0.1,0.1-0.3,0.1-0.4c0-0.2,0-0.3-0.1-0.4c-0.1-0.1-0.2-0.2-0.4-0.2c-0.4,0-0.8,0.1-1.2,0.3
		s-0.7,0.4-1.1,0.7c-0.3,0.3-0.7,0.6-1,1c-0.3,0.4-0.6,0.7-0.9,1.1c-0.3,0.4-0.5,0.8-0.8,1.1s-0.4,0.7-0.6,1
		c-0.2,0.3-0.3,0.7-0.5,1.1s-0.3,0.7-0.5,1.1s-0.4,0.6-0.6,0.8c-0.2,0.2-0.5,0.3-0.8,0.3c-0.1,0-0.2,0-0.4-0.1
		c-0.1,0-0.3-0.1-0.4-0.2s-0.2-0.2-0.3-0.3C104.9,48.1,104.9,48,104.8,47.9z"/>
	<linearGradient id="SVGID_10_" gradientUnits="userSpaceOnUse" x1="118.3027" y1="43.2251" x2="131.2959" y2="43.2251">
		<stop  offset="0" style="stop-color:#FFD900"/>
		<stop  offset="1" style="stop-color:#FF931E"/>
	</linearGradient>
	<path class="st9" d="M126,37.7c0.8,0,1.4,0.2,1.8,0.6s0.6,0.9,0.6,1.6c0,0.4-0.1,0.8-0.3,1.3s-0.6,0.9-1.1,1.4s-1.2,0.9-2.1,1.4
		c-0.9,0.5-2,1-3.3,1.5c0,0.3,0.2,0.5,0.5,0.7c0.3,0.2,0.6,0.2,1,0.2c0.4,0,0.9-0.1,1.4-0.2c0.5-0.1,1-0.3,1.5-0.5
		c0.5-0.2,1-0.4,1.5-0.7c0.5-0.2,0.9-0.5,1.3-0.7s0.7-0.4,1-0.6s0.4-0.3,0.5-0.3c0.1-0.1,0.2-0.1,0.2-0.1c0.1,0,0.1,0,0.2,0
		c0.1,0,0.2,0,0.3,0.1s0.1,0.1,0.2,0.2c0.1,0.1,0.1,0.2,0.1,0.2c0,0.1,0,0.2,0,0.2c0,0.1,0,0.2,0,0.3c0,0.1-0.1,0.3-0.2,0.4
		c0,0-0.2,0.2-0.5,0.4c-0.3,0.2-0.6,0.5-1.1,0.8s-1,0.6-1.5,0.9s-1.2,0.6-1.8,0.9s-1.3,0.5-2,0.7c-0.7,0.2-1.4,0.3-2.1,0.3
		c-0.6,0-1.1-0.1-1.6-0.3c-0.5-0.2-0.8-0.5-1.2-0.9s-0.6-0.8-0.7-1.3s-0.2-1-0.2-1.6c0-0.4,0.1-0.9,0.2-1.4s0.4-1,0.7-1.5
		s0.7-1,1.1-1.5c0.5-0.5,1-0.9,1.5-1.3s1.2-0.7,1.9-0.9S125.2,37.7,126,37.7z M125.5,39.7c0,0-0.1,0-0.1,0s-0.1,0-0.1,0
		c-0.4,0-0.7,0.1-1,0.2s-0.6,0.3-0.9,0.6c-0.3,0.2-0.5,0.5-0.7,0.8s-0.4,0.6-0.6,0.9s-0.3,0.6-0.4,0.9c-0.1,0.3-0.2,0.5-0.3,0.7
		c0.3-0.2,0.7-0.4,1.1-0.6c0.4-0.2,0.7-0.4,1-0.6s0.6-0.4,0.8-0.6s0.4-0.3,0.5-0.3c0.4-0.3,0.7-0.5,0.9-0.8c0.2-0.2,0.2-0.4,0.2-0.6
		c0-0.1,0-0.3-0.1-0.4S125.6,39.8,125.5,39.7z"/>
</g>
</svg>
